# xmcd
#
# Track frame offsets:
# 150
# 9822
# 25939
# 40095
# 49971
# 70396
# 89574
# 104831
# 123330
# 138863
# 151462
# 165248
# 176732
# 194122
# 204568
# 216102
# 228088
# 239427
# 259558
#
# Disc length: 3702 seconds
#
#
# Revision: 0
# Processed by: cddbd v1.5.2PL0 Copyright (c) Steve Scherf et al.
# Submitted via: FreeRIP 2.951 
#
DISCID=090e7413
DTITLE=Various Artist - Beat Box CD4
DYEAR=1900
DGENRE=Blues
TTITLE0=Jewel Akens - The Birds and The Bees 1965
TTITLE1=Cats (The) - One Way Mind 1972
TTITLE2=Shocking Blue - Mighty Joe 1969
TTITLE3=David Garrick - Dear Mrs. Applebee 1966
TTITLE4=E.L.O. - Roll Over Beethoven 1972
TTITLE5=Buoys (The) - Give Up Your Guns 1971
TTITLE6=Sweet Sensation - Sad Sweet Dreamer
TTITLE7=Typically Tropical - Barbados 1975
TTITLE8=Al Wilson - Show and Tell 1973
TTITLE9=Beach Boys (The) - 1966
TTITLE10=Leo Sayer - Long Tall Glasses 1974
TTITLE11=Manfred Mann - Pretty Flamingo 1966
TTITLE12=Golden Earring - Buddy Joe 1972
TTITLE13=Freddie and The Dreamers - You Were Made For Me 1963
TTITLE14=Paul Anka - You're Having My Baby 1974
TTITLE15=Crispian St. Peter - You Were On My Mind
TTITLE16=Jim Croce - I'll Have To Say I Love You In A Song 1974
TTITLE17=Hot Chocolate - So You Win Again 1977
TTITLE18=Hollies (The) - The Air That I Breathe 1974
EXTD=
EXTT0=
EXTT1=
EXTT2=
EXTT3=
EXTT4=
EXTT5=
EXTT6=
EXTT7=
EXTT8=
EXTT9=
EXTT10=
EXTT11=
EXTT12=
EXTT13=
EXTT14=
EXTT15=
EXTT16=
EXTT17=
EXTT18=
PLAYORDER=
